<svg width="27" height="27" viewBox="0 0 27 27" fill="none" xmlns="http://www.w3.org/2000/svg">
<mask id="path-1-outside-1" maskUnits="userSpaceOnUse" x="-10.2135" y="-10.2143" width="48.0833" height="48.0833" fill="black">
<rect fill="white" x="-10.2135" y="-10.2143" width="48.0833" height="48.0833"/>
<path fill-rule="evenodd" clip-rule="evenodd" d="M14.9594 13.8273L25.7074 3.07925L24.5761 1.94788L13.828 12.6959L3.08008 1.948L1.94871 3.07937L12.6966 13.8273L1.94863 24.5753L3.08 25.7067L13.828 14.9587L24.5761 25.7068L25.7075 24.5754L14.9594 13.8273Z"/>
</mask>
<path fill-rule="evenodd" clip-rule="evenodd" d="M14.9594 13.8273L25.7074 3.07925L24.5761 1.94788L13.828 12.6959L3.08008 1.948L1.94871 3.07937L12.6966 13.8273L1.94863 24.5753L3.08 25.7067L13.828 14.9587L24.5761 25.7068L25.7075 24.5754L14.9594 13.8273Z" fill="#120900"/>
<path d="M25.7074 3.07925L26.2731 3.64493L26.8388 3.07925L26.2731 2.51356L25.7074 3.07925ZM14.9594 13.8273L14.3937 13.2616L13.828 13.8273L14.3937 14.393L14.9594 13.8273ZM24.5761 1.94788L25.1417 1.38219L24.5761 0.816506L24.0104 1.38219L24.5761 1.94788ZM13.828 12.6959L13.2623 13.2616L13.828 13.8273L14.3937 13.2616L13.828 12.6959ZM3.08008 1.948L3.64576 1.38231L3.08008 0.816628L2.51439 1.38231L3.08008 1.948ZM1.94871 3.07937L1.38302 2.51368L0.817336 3.07937L1.38302 3.64505L1.94871 3.07937ZM12.6966 13.8273L13.2623 14.393L13.828 13.8273L13.2623 13.2616L12.6966 13.8273ZM1.94863 24.5753L1.38295 24.0096L0.817262 24.5753L1.38295 25.141L1.94863 24.5753ZM3.08 25.7067L2.51432 26.2723L3.08 26.838L3.64569 26.2723L3.08 25.7067ZM13.828 14.9587L14.3937 14.393L13.828 13.8273L13.2623 14.393L13.828 14.9587ZM24.5761 25.7068L24.0104 26.2725L24.5761 26.8382L25.1418 26.2725L24.5761 25.7068ZM25.7075 24.5754L26.2732 25.1411L26.8389 24.5754L26.2732 24.0097L25.7075 24.5754ZM25.1417 2.51356L14.3937 13.2616L15.5251 14.393L26.2731 3.64493L25.1417 2.51356ZM24.0104 2.51356L25.1417 3.64493L26.2731 2.51356L25.1417 1.38219L24.0104 2.51356ZM14.3937 13.2616L25.1417 2.51356L24.0104 1.38219L13.2623 12.1302L14.3937 13.2616ZM2.51439 2.51368L13.2623 13.2616L14.3937 12.1302L3.64576 1.38231L2.51439 2.51368ZM2.51439 3.64505L3.64576 2.51368L2.51439 1.38231L1.38302 2.51368L2.51439 3.64505ZM13.2623 13.2616L2.51439 2.51368L1.38302 3.64505L12.1309 14.393L13.2623 13.2616ZM2.51432 25.141L13.2623 14.393L12.1309 13.2616L1.38295 24.0096L2.51432 25.141ZM3.64569 25.141L2.51432 24.0096L1.38295 25.141L2.51432 26.2723L3.64569 25.141ZM13.2623 14.393L2.51432 25.141L3.64569 26.2723L14.3937 15.5243L13.2623 14.393ZM25.1418 25.1411L14.3937 14.393L13.2623 15.5244L24.0104 26.2725L25.1418 25.1411ZM25.1418 24.0097L24.0104 25.1411L25.1418 26.2725L26.2732 25.1411L25.1418 24.0097ZM14.3937 14.393L25.1418 25.1411L26.2732 24.0097L15.5251 13.2616L14.3937 14.393Z" fill="#120900" mask="url(#path-1-outside-1)"/>
</svg>
