<svg width="28" height="32" viewBox="0 0 28 32" fill="none" xmlns="http://www.w3.org/2000/svg">
<path fill-rule="evenodd" clip-rule="evenodd" d="M25.1923 25.0385H22.7308V27.0385H25.1923H27.1923V25.0385V7.88122V2.5V0.5H25.1923H20.1868H7.26922H5.26922V2.5V4.96154H2.80768H0.807678V6.96154V29.5V31.5H2.80768H20.7308H22.7308V29.5V13.3428V12.3428L21.7817 11.3428L16.7253 6.01517L15.7253 4.96154H14.7253H7.26922V2.5H20.1868H25.1923V7.88122V25.0385ZM14.7253 13.3428V12.3428V6.96154H2.80768V29.5H20.7308V13.3428H15.7253H14.7253ZM19.0243 11.3428L16.7253 8.92044V11.3428H19.0243ZM10.9038 15.4808H4.84615V13.4808H10.9038V15.4808ZM18.6923 18.9423H4.84615V16.9423H18.6923V18.9423ZM18.6923 22.4038H4.84615V20.4038H18.6923V22.4038ZM18.6923 25.8654H4.84615V23.8654H18.6923V25.8654Z" fill="black"/>
</svg>
