<svg width="139" height="138" viewBox="0 0 139 138" fill="none" xmlns="http://www.w3.org/2000/svg">
<path d="M95.0088 117.411C94.8569 117.801 94.7379 118.188 94.5632 118.548C94.3379 119.003 93.91 118.955 93.5505 118.801C92.7656 118.477 91.9858 118.133 91.2389 117.735C88.1379 116.119 85.385 113.909 83.1371 111.231C81.1344 108.858 79.4953 106.201 78.2735 103.347C76.8025 99.8502 76.172 96.2044 76.6936 92.4471C77.2 88.8241 78.9469 85.8644 82.0434 83.8263C85.1398 81.7881 88.6641 81.3197 92.3023 81.6818C94.1556 81.8666 95.8773 82.5325 97.5964 83.2287C101.933 84.9858 106.275 85.1453 110.615 83.1528C112.952 82.0793 114.919 80.5273 116.712 78.7246C117.089 78.3474 117.491 77.998 117.96 77.565C116.714 76.2257 115.577 74.8383 114.271 73.6357C111.651 71.2228 108.511 69.7619 105.06 68.9189C102.896 68.4258 100.694 68.1159 98.4774 67.9922C95.765 67.7947 93.0526 67.5947 90.3401 67.3922C90.1756 67.3795 90.0135 67.3517 89.811 67.3263V65.7541C90.4642 65.7541 91.1048 65.7363 91.7453 65.7541C93.9846 65.8497 96.2274 65.6865 98.4293 65.268C103.027 64.3489 106.898 62.1715 109.861 58.5004C111.139 56.8733 112.21 55.0932 113.048 53.2013C113.137 53.0038 113.195 52.7936 113.289 52.5278C112.722 52.3151 112.197 52.0923 111.658 51.9202C107.949 50.7452 103.982 50.6573 100.224 51.667C98.6547 52.0746 97.1052 52.5683 95.576 53.1101C94.8066 53.4208 94.0662 53.7987 93.3632 54.2393C91.7377 55.1609 89.9553 55.3179 88.1552 55.2521C84.7701 55.1381 81.9649 53.5709 79.3571 51.5758C77.6177 50.2441 76.048 48.7275 74.9821 46.7907C74.3764 45.7363 73.8809 44.6223 73.5035 43.4664C72.4579 40.0459 72.2376 36.5216 72.5718 32.977C72.7465 31.1389 73.1389 29.3261 73.382 27.4931C73.7263 24.9056 73.9769 22.3029 73.6731 19.6925C73.3896 17.2519 72.4376 15.1479 70.3691 13.6693C69.3412 12.9351 68.3436 13.011 67.4398 13.9478C66.5092 14.8939 65.785 16.0228 65.3131 17.263C64.8411 18.5033 64.6316 19.828 64.6978 21.1534C64.7712 23.1434 65.0523 25.1284 65.3029 27.1057C65.7612 30.7212 66.2802 34.3316 66.0321 37.9926C65.8017 41.3726 64.8953 44.545 63.0065 47.3781C61.3581 49.8359 59.1168 51.8387 56.4896 53.2013C54.6414 54.1887 52.7273 54.9963 50.6158 55.2495C48.8052 55.4726 46.9689 55.1657 45.3293 54.3659C42.5443 53.0215 39.6985 51.8569 36.6173 51.3784C34.4349 51.0391 32.2423 50.8138 30.0345 51.0999C28.4723 51.2866 26.9471 51.7073 25.5102 52.348C25.2696 52.4787 25.0363 52.6224 24.8114 52.7785C25.4114 53.9304 25.9532 55.0824 26.5837 56.1736C28.8233 60.0466 32.3809 62.985 36.6072 64.4527C40.1796 65.7034 43.871 65.9161 47.6105 65.7186C47.7573 65.7186 47.9067 65.7034 48.0536 65.7009C48.1111 65.7097 48.1673 65.7259 48.2207 65.749V67.5922L47.5928 67.62C44.8559 67.6985 42.1114 67.6732 39.3846 67.8732C36.0412 68.1123 32.7511 68.8407 29.6193 70.0354C26.4198 71.2836 23.6035 73.349 21.4517 76.0257C21.2997 76.2105 21.1504 76.3979 21.0061 76.5878C20.4009 77.3904 20.4085 77.803 21.1048 78.5195C23.8037 81.3046 26.9103 83.4237 30.7586 84.2643C32.9136 84.7742 35.1614 84.742 37.3009 84.1706C39.4479 83.568 41.5442 82.7933 43.6811 82.1451C46.0042 81.3977 48.4809 81.2625 50.8715 81.7527C55.2667 82.7122 58.7328 84.996 60.5709 89.2646C61.614 91.6876 61.6773 94.2625 61.3988 96.8601C61.2324 98.6306 60.8672 100.377 60.3101 102.066C59.4288 104.615 58.1468 107.008 56.5124 109.155C54.7401 111.499 52.778 113.671 50.436 115.472C48.696 116.818 46.7627 117.893 44.7014 118.662C44.309 118.806 44.0305 118.796 43.8912 118.34C43.8414 118.221 43.7847 118.106 43.7216 117.993C43.5165 117.507 43.5165 117.188 44.1014 116.862C45.7268 115.958 47.3295 115.001 48.8663 113.952C51.4119 112.196 53.6046 109.977 55.33 107.41C57.3662 104.407 58.7465 101.008 59.381 97.4348C59.7304 95.5562 59.8013 93.6801 59.3253 91.8192C58.6164 89.0519 57.0719 86.8417 54.6414 85.3403C52.0083 83.7123 49.0866 83.4819 46.0762 83.8009C42.557 84.1756 39.5795 85.7403 36.8376 87.8772C33.5133 90.4672 31.0144 93.7232 29.0927 97.4323C28.1914 99.1666 27.3432 100.929 26.4419 102.663C26.3128 102.916 25.9634 103.271 25.8013 103.233C25.3693 103.086 24.9628 102.874 24.5962 102.602C24.5531 102.574 24.5962 102.349 24.6367 102.243C25.8469 99.2046 27.1559 96.2221 28.9762 93.4852C30.6928 90.9027 32.774 88.6469 34.9995 86.51C34.9995 86.51 34.9995 86.4771 35.0223 86.3707C28.5382 86.7961 23.3936 84.1199 19.0996 79.3399C18.34 80.9172 17.6438 82.4084 16.907 83.9655L15.0031 83.2465C15.4183 82.3857 15.8057 81.5755 16.2032 80.7703C16.6943 79.7779 17.2159 78.7955 17.6792 77.7954C17.7139 77.6982 17.7278 77.5948 17.7199 77.4918C17.7121 77.3889 17.6827 77.2888 17.6337 77.1979C16.3661 75.2223 15.3626 73.0893 14.6486 70.8532C14.0309 68.8657 13.5042 66.8504 12.8991 64.7059C13.4678 64.6362 14.0403 64.6041 14.6132 64.6097C14.76 64.6097 14.9474 64.9566 15.0107 65.1743C15.3651 66.3769 15.6791 67.5947 16.0234 68.7999C16.6606 71.1347 17.6119 73.3722 18.8515 75.451C18.9097 75.5421 18.9806 75.6257 19.0692 75.7447C23.0948 70.3139 28.6446 67.5036 35.321 66.2807C29.2851 63.5691 25.2595 59.1612 22.8416 53.1532L19.2591 56.1483C17.9932 57.2041 16.7576 58.2725 15.4867 59.3106C15.4003 59.3556 15.3043 59.3791 15.2069 59.3791C15.1095 59.3791 15.0135 59.3556 14.9271 59.3106C14.593 59.0718 14.275 58.8113 13.9752 58.5308C14.7778 57.6649 15.5373 56.8117 16.3196 55.9863C17.8569 54.3888 19.615 53.0195 21.5403 51.9202C21.7504 51.8197 21.9162 51.6456 22.0063 51.4309C22.0964 51.2161 22.1045 50.9758 22.0289 50.7555C21.7757 49.6592 21.4643 48.5706 21.2871 47.4642C20.8921 44.9602 20.5453 42.4435 21.1301 39.9168C21.1959 39.6307 21.2896 39.3497 21.3833 39.0104L23.2214 39.2636C22.4289 43.1373 23.1834 46.8337 24.1177 50.6011C26.7289 49.6671 29.4843 49.2008 32.2575 49.2238C35.0222 49.2668 37.7212 49.7732 40.5467 50.5125C40.0884 49.6922 39.6732 49.0263 39.3314 48.325C38.4529 46.5198 37.5591 44.7171 36.7616 42.879C35.937 40.8968 35.4031 38.8059 35.1767 36.671C34.8374 33.9341 34.8906 31.1972 35.5944 28.516C36.3399 25.5992 37.9465 22.9745 40.2049 20.9838C41.2176 20.0824 42.3114 19.2723 43.4051 18.3912L44.7242 20.0571C43.995 20.5508 43.2811 20.9939 42.6076 21.4927C39.6909 23.6624 37.7971 26.4576 37.1895 30.1009C36.7631 32.7913 36.8318 35.537 37.392 38.2027C37.8787 40.442 38.6639 42.6058 39.7264 44.6361C40.4024 45.9856 41.0429 47.3679 41.8683 48.6288C43.2608 50.7581 45.1065 52.3936 47.6206 53.1354C49.6258 53.7279 51.5551 53.3456 53.4059 52.5658C55.9516 51.5032 58.2262 49.8827 60.062 47.8237C61.5305 46.1831 62.4521 44.2639 63.1002 42.1726C64.2699 38.3926 64.2598 34.5569 63.7712 30.6857C63.4243 27.9741 63.0116 25.2651 62.7356 22.5459C62.4977 20.5138 62.7584 18.4542 63.4952 16.5455C63.8508 15.6203 64.334 14.7493 64.9307 13.9579C65.9332 12.7014 66.6269 11.2272 66.9562 9.65384C67.4955 7.03087 67.9537 4.39271 68.4449 1.76214C68.4677 1.63555 68.4829 1.50896 68.5107 1.37983C68.5918 1.01019 68.7639 0.701301 69.1842 0.68611C69.6045 0.670919 69.8273 0.96461 69.9032 1.3773C70.3674 3.93951 70.8349 6.50172 71.3059 9.06393C71.4299 9.73739 71.5818 10.4058 71.6679 11.0894C71.7286 11.7566 72.0409 12.3758 72.5414 12.8212C73.944 14.0871 74.6378 15.7277 75.1239 17.4974C75.8834 20.2825 75.7973 23.0675 75.2732 25.8525C74.4074 30.4933 74.5137 35.1747 74.7922 39.8509C74.8582 41.4555 75.2548 43.0291 75.9571 44.4733C76.6593 45.9175 77.6522 47.2012 78.8735 48.244C80.1901 49.3934 81.4838 50.5935 82.9244 51.5784C85.3347 53.2317 88.0412 53.819 90.9047 53.0519C92.1794 52.7222 93.3726 52.1337 94.4101 51.3231C95.4476 50.5125 96.3072 49.4972 96.9356 48.3402C98.1574 46.2539 99.1886 44.0618 100.017 41.7903C100.963 39.1782 101.48 36.4303 101.549 33.653C101.642 28.8426 99.913 24.8144 96.2697 21.6598C95.5101 21.004 94.5911 20.5382 93.6923 19.9508L94.7962 18.4545C96.517 19.1395 98.0393 20.2439 99.2243 21.6674C102.316 25.3765 103.594 29.6882 103.392 34.4658C103.212 38.6711 102.05 42.6132 100.174 46.3653C99.6294 47.4515 99.0218 48.5098 98.4471 49.5808C98.3711 49.7251 98.3154 49.882 98.2673 49.9934C100.895 49.7251 103.518 49.2187 106.134 49.2491C108.749 49.2795 111.367 49.8491 114.03 50.1884C114.63 48.4669 114.977 46.6674 115.058 44.8462C115.112 43.0259 115.036 41.2004 115.015 39.3041L116.927 38.9623C116.978 40.1067 117.102 41.1928 117.059 42.2739C116.98 44.2842 116.848 46.2944 116.643 48.2946C116.56 49.1073 116.241 49.8998 115.993 50.6897C115.932 50.8077 115.919 50.9444 115.956 51.0719C115.992 51.1993 116.076 51.308 116.19 51.3758C118.975 53.6545 121.722 55.966 124.517 58.2953L123.393 59.6777L115.256 53.2013C114.005 56.123 112.451 58.8067 110.253 61.098C108.055 63.3893 105.417 65.0173 102.379 66.2908C105.713 66.9542 108.835 67.8099 111.721 69.3695C114.63 70.9211 117.123 73.1503 118.988 75.8687C119.618 74.7319 120.239 73.7141 120.76 72.6457C121.844 70.4253 122.464 68.0479 123.011 65.6503C123.264 64.5388 123.54 64.1438 125.198 64.9034C124.788 66.4225 124.495 68.0125 123.932 69.4936C123.069 71.7292 122.011 73.8863 121.036 76.0763C120.871 76.4485 120.687 76.8131 120.56 77.1979C120.322 77.9018 120.677 78.479 120.98 79.0816C121.758 80.626 122.499 82.1907 123.287 83.8035C122.806 84.0263 122.436 84.2364 122.041 84.3731C121.517 84.558 121.155 84.3022 120.844 83.6009C120.233 82.2211 119.621 80.8387 118.962 79.355C116.874 81.6818 114.542 83.568 111.752 84.8213C108.962 86.0745 106.005 86.5277 102.933 86.3783C104.055 87.5303 105.154 88.6114 106.202 89.7406C107.888 91.5248 109.335 93.5206 110.506 95.6777C111.623 97.7741 112.597 99.9439 113.648 102.076C113.698 102.148 113.73 102.23 113.743 102.317C113.755 102.403 113.747 102.491 113.72 102.574C113.692 102.657 113.646 102.733 113.584 102.795C113.523 102.857 113.447 102.903 113.365 102.931C112.992 103.126 112.605 103.288 112.162 103.493C111.732 102.602 111.311 101.767 110.924 100.914C109.205 97.1335 107.151 93.5713 104.27 90.5331C102.174 88.3203 99.8472 86.4087 97.0621 85.1023C95.6541 84.4444 94.1541 84.0047 92.6137 83.7984C90.5438 83.4703 88.4294 83.5564 86.393 84.0516C83.7321 84.7301 81.6965 86.3024 80.1774 88.5557C78.476 91.0875 78.2633 93.9156 78.6583 96.812C78.886 98.3069 79.2245 99.7828 79.671 101.228C80.2002 103.043 81.1344 104.686 82.137 106.291C83.5965 108.645 85.3766 110.784 87.426 112.646C89.4546 114.51 91.7905 116.009 94.3303 117.077C94.4493 117.125 94.5683 117.178 94.6822 117.234C94.7962 117.289 94.8645 117.33 95.0088 117.411Z" fill="white"/>
<path d="M63.558 124.553C63.1352 124.163 62.7707 123.793 62.3782 123.474C62.125 123.269 62.201 123.14 62.3782 122.933C64.6897 120.062 66.333 116.712 67.1887 113.127C67.8844 110.037 68.0852 106.856 67.7837 103.703C67.7583 103.41 67.6925 103.118 67.6545 102.825C67.6166 102.531 67.5938 102.283 67.5583 101.941C67.9744 101.922 68.3913 101.929 68.8065 101.961C68.9281 101.977 69.0926 102.215 69.1179 102.361C69.4268 104.334 69.6927 106.311 70.0117 108.281C70.356 110.413 70.6927 112.55 71.1307 114.664C71.6219 117.026 72.7207 119.14 74.0677 121.125C74.5614 121.851 75.1006 122.548 75.6526 123.302L74.0195 124.545C71.508 121.717 70.0091 118.38 68.9382 114.651C67.8014 118.388 66.0924 121.651 63.558 124.553Z" fill="white"/>
<path d="M118.749 100.136L124.354 102.98L124.435 102.881L123.711 102.197C122.496 101.066 121.278 99.939 120.08 98.787C120.032 98.7101 120.002 98.6229 119.993 98.5323C119.984 98.4416 119.997 98.3502 120.03 98.2654C120.204 97.9163 120.399 97.5781 120.615 97.2527L127.152 99.2807L121.405 95.5665L122.311 93.9917L131.21 99.9846L130.099 101.949L123.157 99.7364L123.116 99.8124C123.929 100.526 124.744 101.235 125.554 101.954C126.478 102.775 127.402 103.595 128.306 104.438C128.356 104.512 128.387 104.596 128.396 104.685C128.406 104.773 128.393 104.862 128.359 104.944C128.083 105.484 127.759 105.998 127.42 106.575L117.822 101.78L118.749 100.136Z" fill="white"/>
<path d="M44.5974 121.882L46.2152 122.72C44.3214 125.784 42.4479 128.812 40.5642 131.863C39.9616 131.551 39.3818 131.275 38.8324 130.949C38.7699 130.888 38.7232 130.813 38.6963 130.73C38.6694 130.647 38.6631 130.559 38.678 130.473C39.1565 128.673 39.6578 126.878 40.1565 125.08C40.2831 124.622 40.4097 124.166 40.5844 123.589C39.5717 124.824 38.6476 125.966 37.7133 127.098C37.1639 127.766 36.5867 128.412 36.0474 129.088C36.0183 129.14 35.9781 129.184 35.9297 129.218C35.8813 129.252 35.8259 129.275 35.7675 129.286C35.7091 129.296 35.6492 129.293 35.5921 129.277C35.5349 129.261 35.4821 129.233 35.4372 129.194C34.9309 128.913 34.4245 128.65 33.8396 128.328L38.2172 118.561L39.916 119.426L37.1032 125.503C38.5109 123.895 39.8477 122.394 41.1541 120.865C41.4199 120.553 41.6301 120.447 41.9744 120.69C42.1221 120.796 42.284 120.882 42.4554 120.943C42.8175 121.062 42.8099 121.282 42.7264 121.594C42.2428 123.394 41.7769 125.196 41.306 126.999C41.2605 127.131 41.2605 127.275 41.306 127.407L44.5974 121.882Z" fill="white"/>
<path d="M120.721 28.7013C118.966 29.5646 117.292 30.3799 115.627 31.2103C114.702 31.6686 114.707 31.6812 114.087 30.8812C114.009 30.7799 113.943 30.666 113.814 30.4736L117.713 25.296L117.657 25.2377L112.441 29.1773L111.264 27.7746L119.971 21.4932C120.409 22.0122 120.867 22.5059 121.257 23.0578C121.333 23.1642 121.194 23.5009 121.067 23.6655C119.685 25.4605 118.282 27.2429 116.933 29.0912C117.48 28.7848 118.024 28.4709 118.579 28.1721C120.098 27.3619 121.597 26.5492 123.118 25.7618C123.201 25.735 123.289 25.7291 123.375 25.7446C123.461 25.76 123.541 25.7964 123.609 25.8504C124.035 26.3062 124.42 26.7973 124.85 27.3189L117.062 34.6764C116.657 34.1928 116.27 33.7346 115.839 33.2257L120.721 28.7013Z" fill="white"/>
<path d="M0.943658 80.5658C0.865172 79.8467 0.774026 79.191 0.736049 78.5403C0.736049 78.4365 0.941126 78.2669 1.08544 78.2188C3.18179 77.5073 5.28574 76.8136 7.38716 76.1123C7.50615 76.0718 7.61755 76.0161 7.77199 75.9502L0.346147 75.2717C0.267661 74.5122 0.191706 73.8108 0.110687 73.031L10.6431 71.1777L10.8558 73.0488L4.15655 74.1653C5.59716 74.3197 6.96687 74.464 8.33406 74.6185C9.04804 74.6995 9.76201 74.816 10.4785 74.8869C10.8355 74.9223 10.9849 75.0666 11.0051 75.4337C11.0482 76.6515 11.3115 76.373 10.1696 76.7731C8.35938 77.406 6.55925 78.0618 4.71861 78.7226L11.4862 78.3023C11.5495 78.8897 11.6077 79.4518 11.6761 80.1126L0.943658 80.5658Z" fill="white"/>
<path d="M9.91746 87.9202L3.49168 90.3431C3.26129 89.7076 3.06381 89.1582 2.84354 88.5455L12.9708 85.001C13.181 85.5782 13.3962 86.12 13.5633 86.677C13.5937 86.7808 13.462 86.9783 13.3532 87.072C11.6332 88.5236 9.90987 89.9693 8.18316 91.409C8.13898 91.4553 8.09994 91.5062 8.0667 91.5609L14.4444 89.2544C14.6596 89.857 14.8596 90.4216 15.0723 91.0267L4.95761 94.5611C4.74747 93.9763 4.5348 93.4345 4.3677 92.8775C4.33985 92.7813 4.48923 92.5964 4.60063 92.5002C6.36784 90.9693 8.14012 89.4426 9.91746 87.9202Z" fill="white"/>
<path d="M126.855 30.1868L127.868 31.8552L123.392 37.7088L129.194 34.0174L130.179 35.6403L121.019 41.2103C120.71 40.704 120.386 40.2153 120.115 39.6912C120.062 39.5874 120.166 39.352 120.262 39.2279C121.621 37.4573 122.986 35.6935 124.356 33.9364C124.374 33.9136 124.369 33.8731 124.381 33.8199L118.695 37.3645L117.697 35.7669L126.855 30.1868Z" fill="white"/>
<path d="M14.8437 47.2669L14.1044 49.0012L4.24799 44.8465C4.46572 44.3072 4.65055 43.773 4.90879 43.2767C4.97715 43.1476 5.28603 43.0894 5.48099 43.0919C7.77482 43.1299 10.0687 43.1881 12.3954 43.2413L5.98229 40.7322L6.72158 38.96L16.5805 43.1122C16.3527 43.6692 16.1704 44.1907 15.9172 44.6768C15.8489 44.7515 15.7648 44.81 15.6711 44.8481C15.5774 44.8862 15.4764 44.9029 15.3754 44.8971C13.1752 44.8287 10.9751 44.7401 8.77743 44.6439C8.72173 44.6439 8.66856 44.6439 8.49639 44.6642L14.8437 47.2669Z" fill="white"/>
<path d="M44.2145 4.36988C45.3262 3.68611 46.5661 3.23719 47.8578 3.05079C49.6984 2.83559 50.8757 4.28886 50.7492 5.86872C50.7036 6.42066 50.3618 6.94981 50.1795 7.43086C50.6352 7.63847 51.2606 7.79291 51.7214 8.15749C53.0253 9.19047 53.1038 11.54 51.7214 12.6414C50.8732 13.3098 48.6832 14.2238 47.6021 14.2288C46.4729 10.9754 45.3538 7.70176 44.2145 4.36988ZM48.1034 9.23099C48.4477 10.2209 48.7769 11.1704 49.1161 12.1274C49.82 12.0008 50.3593 11.7476 50.5036 11.0488C50.5893 10.7243 50.5784 10.3818 50.4722 10.0634C50.3661 9.74502 50.1693 9.4645 49.9061 9.2563C49.3491 8.80817 48.7541 8.82589 48.1034 9.23099ZM47.597 7.60302C48.1439 7.54225 48.5363 7.32452 48.706 6.80802C48.8125 6.51231 48.8337 6.19256 48.767 5.88539C48.7003 5.57822 48.5484 5.29605 48.3287 5.07119C47.9743 4.6661 47.5692 4.72939 47.1135 4.83826C46.7894 4.91675 46.6982 5.09144 46.8096 5.40792C47.0603 6.13203 47.3211 6.86879 47.5869 7.60302H47.597Z" fill="white"/>
<path d="M85.8446 135.974L83.8191 136.531C82.9152 133.065 82.0215 129.645 81.1151 126.171L83.1406 125.624C83.5229 127.067 83.9001 128.485 84.2799 129.928L86.3281 129.422L85.2065 125.118L87.2599 124.568L89.9715 134.911L87.9333 135.437C87.5687 134.083 87.2092 132.744 86.8295 131.328L84.7913 131.86C85.1433 133.245 85.4901 134.592 85.8446 135.974Z" fill="white"/>
<path d="M59.6977 130.776C59.8268 130.052 59.9508 129.366 60.0673 128.678C60.1838 127.989 60.28 127.333 60.399 126.574L62.4827 126.951C61.9155 130.417 61.3535 133.85 60.7712 137.412C59.8875 137.319 59.0267 137.273 58.1836 137.129C57.6573 137.043 57.1485 136.872 56.6772 136.622C56.3353 136.432 56.0357 136.174 55.7968 135.864C55.5578 135.554 55.3845 135.199 55.2874 134.82C55.1903 134.441 55.1713 134.046 55.2318 133.66C55.2923 133.273 55.4309 132.903 55.6391 132.571C56.0129 131.936 56.6106 131.463 57.3152 131.245C56.5683 130.642 56.4265 129.832 56.4139 128.984C56.3987 128.007 56.4139 127.029 56.4139 125.976C56.943 126.052 57.6114 126.131 58.2672 126.262C58.3634 126.282 58.4596 126.553 58.4672 126.71C58.5077 127.67 58.5102 128.632 58.5533 129.592C58.5786 130.389 58.8065 130.609 59.6977 130.776ZM58.9229 135.486C59.0925 134.473 59.2622 133.46 59.4293 132.447C58.7204 132.278 58.1178 132.326 57.7532 132.939C57.3886 133.551 57.2468 134.275 57.6038 134.946C57.8621 135.415 58.3254 135.594 58.9229 135.486Z" fill="white"/>
<path d="M104.232 16.67L101.832 20.1462L100.098 18.9461L106.065 10.262C107.331 10.8291 108.491 11.5102 109.405 12.5204C110.438 13.6622 110.207 15.4649 108.931 16.5713C108.622 16.8451 108.261 17.0536 107.87 17.1841C107.478 17.3146 107.064 17.3645 106.653 17.3308C107.21 18.8499 106.187 19.9538 105.779 21.2172C105.645 21.6349 105.468 22.04 105.273 22.5236C104.718 22.1464 104.166 21.797 103.65 21.402C103.561 21.3336 103.559 21.0577 103.617 20.9159C103.976 20.0298 104.361 19.1436 104.741 18.2752C105.08 17.503 104.984 17.1764 104.232 16.67ZM105.209 15.2421C105.703 15.7181 106.235 15.8345 106.782 15.6016C107.329 15.3687 107.979 14.4597 107.934 13.885C107.888 13.3103 107.541 12.9179 106.949 12.7153L105.209 15.2421Z" fill="white"/>
<path d="M41.1211 12.7349C41.4148 13.3628 41.7034 14.0008 42.0073 14.6262C42.3111 15.2516 42.6124 15.8465 42.9466 16.5124L41.0578 17.4644L36.4094 7.99282C37.4892 7.10435 38.7649 6.48558 40.1312 6.18762C40.6149 6.08092 41.1198 6.12602 41.577 6.31677C42.0341 6.50753 42.4214 6.83465 42.6858 7.25353C43.4453 8.3093 43.6074 9.45115 42.9921 10.6462C42.9415 10.7424 42.8757 10.8285 42.7896 10.9626C43.9112 11.0513 44.4707 11.8412 45.0556 12.6058C45.5771 13.2919 46.124 13.9578 46.6937 14.6768C46.1316 14.9629 45.5873 15.2668 45.0176 15.5073C44.9219 15.5231 44.8237 15.5155 44.7315 15.4851C44.6394 15.4547 44.556 15.4023 44.4885 15.3326C43.8909 14.573 43.3415 13.7983 42.7491 13.0539C42.2123 12.3627 41.787 12.2893 41.1211 12.7349ZM40.3464 11.1728C41.0173 10.9956 41.3819 10.6133 41.4072 9.98536C41.4433 9.6147 41.372 9.24148 41.2019 8.91019C41.0317 8.5789 40.7699 8.30352 40.4477 8.11688C39.9413 7.81812 39.4552 8.0156 38.9995 8.41816L40.3464 11.1728Z" fill="white"/>
<path d="M80.7754 133.192C80.7501 134.26 80.6058 135.47 79.7804 136.503C79.5014 136.868 79.1383 137.159 78.7222 137.352C78.3061 137.546 77.8493 137.636 77.3909 137.614C76.9325 137.592 76.4862 137.46 76.0902 137.228C75.6941 136.996 75.3601 136.672 75.1167 136.283C73.9572 134.483 73.7394 132.46 73.8306 130.381C73.8403 129.452 74.1307 128.548 74.6635 127.786C74.93 127.432 75.2743 127.143 75.67 126.943C76.0656 126.742 76.502 126.635 76.9456 126.63C77.3891 126.625 77.8279 126.722 78.2281 126.913C78.6282 127.104 78.9792 127.385 79.2538 127.733C80.2412 129.007 80.7805 130.868 80.7754 133.192ZM75.9117 130.89H75.9598C75.9664 131.144 75.9867 131.398 76.0206 131.65C76.2232 132.696 76.4054 133.749 76.6688 134.779C76.7928 135.265 77.0992 135.726 77.7068 135.676C78.3144 135.625 78.3803 135.136 78.5018 134.678C78.8385 133.412 78.5651 132.174 78.3347 130.949C78.1855 130.251 77.9392 129.578 77.603 128.948C77.5146 128.818 77.3948 128.711 77.2546 128.639C77.1144 128.566 76.9582 128.53 76.8004 128.533C76.6469 128.595 76.5088 128.69 76.3959 128.811C76.283 128.933 76.1981 129.077 76.1472 129.235C76.0238 129.779 75.945 130.333 75.9117 130.89Z" fill="white"/>
<path d="M38.6365 17.4499C38.6365 18.645 38.0567 19.5032 37.0744 20.083C36.0313 20.6957 34.9679 20.5717 33.9931 19.9134C32.9616 19.2464 32.0794 18.373 31.4022 17.3481C30.725 16.3232 30.2676 15.1691 30.0587 13.9585C29.7549 12.2622 30.484 11.0368 32.0259 10.414C33.2386 9.92787 34.2438 10.457 35.1299 11.1913C36.7334 12.5448 37.897 14.3457 38.4719 16.3638C38.5538 16.7212 38.6088 17.0843 38.6365 17.4499ZM36.5933 17.5841C36.5757 17.3772 36.5271 17.174 36.449 16.9815C35.9333 15.9458 35.3654 14.9369 34.7476 13.9585C34.3185 13.3662 33.7981 12.8457 33.2057 12.4167C33.0564 12.3408 32.8905 12.3032 32.7231 12.3072C32.5556 12.3111 32.3918 12.3566 32.2462 12.4394C32.0462 12.5736 32.0132 13.0066 31.9702 13.3155C31.9784 13.4991 32.0241 13.6792 32.1044 13.8446C32.5247 15.1485 33.2868 16.26 34.1425 17.3006C34.5136 17.7548 34.9726 18.1294 35.492 18.4019C36.1097 18.7007 36.5857 18.3335 36.5933 17.5841Z" fill="white"/>
<path d="M132.526 70.5317C131.526 70.5459 130.534 70.3599 129.607 69.9848C128.467 69.4784 127.761 68.648 127.66 67.3871C127.587 66.8007 127.709 66.2067 128.006 65.6959C128.304 65.1852 128.76 64.7859 129.305 64.5591C131.822 63.3944 134.415 63.2628 136.954 64.4983C137.492 64.7406 137.941 65.1449 138.238 65.6547C138.534 66.1644 138.665 66.7542 138.61 67.3416C138.552 68.6227 137.807 69.3898 136.714 69.8962C135.526 70.4481 134.258 70.5418 132.526 70.5317ZM133.318 65.7541C132.328 65.9516 131.255 66.1162 130.217 66.4048C130.049 66.4763 129.902 66.5886 129.789 66.7314C129.676 66.8742 129.6 67.0431 129.569 67.2226C129.569 67.4985 129.976 67.7922 130.247 68.0328C130.408 68.1255 130.589 68.1768 130.774 68.1821C132.362 68.4487 133.986 68.4143 135.562 68.0809C135.737 68.041 135.907 67.9798 136.068 67.8986C136.443 67.7137 136.797 67.4909 136.741 66.9947C136.686 66.4985 136.324 66.3035 135.916 66.2174C135.101 66.0453 134.265 65.9187 133.318 65.7541Z" fill="white"/>
<path d="M6.09134 70.3136C4.13423 70.2275 2.63792 70.0174 1.32897 69.1464C0.29092 68.4552 -0.10911 67.445 0.0250773 66.2222C0.0650067 65.7014 0.261766 65.2049 0.589433 64.7981C0.917101 64.3914 1.3603 64.0934 1.86065 63.9435C4.19677 63.0911 6.76934 63.1572 9.05864 64.1284C11.0208 64.9284 11.5905 67.2779 10.2081 68.797C9.75422 69.2775 9.18382 69.6325 8.55227 69.8275C7.74422 70.0464 6.92192 70.2088 6.09134 70.3136ZM5.66346 68.1793C6.53441 68.0476 7.28129 67.9539 8.02059 67.8147C8.55227 67.7159 9.07383 67.478 9.06877 66.8577C9.0637 66.2374 8.50164 66.0475 8.02818 65.9411C6.23059 65.5335 4.41273 65.3538 2.61514 65.9082C2.44075 65.9673 2.2819 66.0648 2.15041 66.1937C2.01891 66.3226 1.91814 66.4794 1.85559 66.6526C1.81255 66.888 2.20498 67.2197 2.43031 67.4856C2.53069 67.5671 2.65334 67.6165 2.78224 67.6273C3.76965 67.8198 4.7596 68.0071 5.66346 68.1793Z" fill="white"/>
<path d="M116.518 19.0925C116.45 20.3129 115.911 21.313 115.252 22.2295C114.354 23.5201 113.194 24.6071 111.847 25.4196C110.232 26.369 108.439 25.9766 107.472 24.3765C106.928 23.4777 107.034 22.4877 107.414 21.5915C108.328 19.4419 109.781 17.7228 111.918 16.7025C113.384 16.0037 115.08 16.1683 116.055 17.7557C116.303 18.1482 116.369 18.6444 116.518 19.0925ZM114.551 19.0925C114.45 18.4621 114.123 18.1406 113.564 18.2393C113.251 18.2707 112.954 18.3872 112.703 18.5761C111.787 19.3965 110.915 20.2644 110.09 21.1762C109.678 21.6933 109.366 22.2822 109.168 22.9131C109.142 23.079 109.155 23.2488 109.207 23.4086C109.259 23.5684 109.348 23.7135 109.467 23.8321C109.622 23.9815 110.037 23.9334 110.308 23.8676C110.576 23.7958 110.82 23.6553 111.017 23.4599C111.857 22.6396 112.721 21.832 113.478 20.9281C113.926 20.3964 114.199 19.7154 114.551 19.1001V19.0925Z" fill="white"/>
<path d="M99.496 18.5356C98.863 18.2039 98.2503 17.9102 97.6756 17.5583C97.5541 17.4849 97.506 17.181 97.5313 16.9988C97.7009 15.7531 97.9009 14.5125 98.0883 13.2719C98.0948 13.169 98.0948 13.0659 98.0883 12.963C97.5085 13.1681 97.2224 13.5934 96.9844 14.0821C96.5793 14.9075 96.1514 15.7202 95.7185 16.5759L93.8373 15.5885C95.478 12.4212 97.1034 9.28428 98.7617 6.08911L100.648 7.0588L98.6048 11.016L98.6731 11.0819C99.2833 10.5755 99.8935 10.0388 100.509 9.51974C101.058 9.05641 101.608 8.59056 102.175 8.14495C102.235 8.10047 102.305 8.07011 102.379 8.0561C102.453 8.04208 102.53 8.04476 102.603 8.06394C103.213 8.36269 103.803 8.69943 104.446 9.04882C103.124 9.98306 101.84 10.9072 100.537 11.8009C100.4 11.8877 100.287 12.0078 100.21 12.15C100.132 12.2921 100.092 12.4517 100.093 12.6136C99.934 14.4922 99.7466 16.3709 99.5669 18.2469C99.5487 18.3444 99.5251 18.4408 99.496 18.5356Z" fill="white"/>
<path d="M137.406 55.9861C137.5 56.7102 137.586 57.3659 137.68 58.085L133.013 58.7711L135.586 59.404C136.267 59.5711 136.953 59.7256 137.611 59.9307C137.701 59.9682 137.781 60.0252 137.846 60.0974C137.91 60.1697 137.958 60.2554 137.986 60.3484C138.11 60.9611 138.173 61.5865 138.275 62.308L137.439 62.0042C136.148 61.5586 134.859 61.1029 133.563 60.675C133.388 60.6441 133.208 60.6784 133.057 60.7712C131.348 61.7561 129.644 62.7562 127.94 63.7486C127.879 63.7841 127.813 63.8069 127.687 63.8676C127.59 63.1359 127.476 62.4498 127.433 61.7561C127.433 61.6346 127.646 61.4498 127.8 61.3662C128.973 60.7408 130.153 60.1332 131.345 59.5053C130.808 58.9787 130.226 59.1534 129.649 59.2521C128.813 59.3813 127.975 59.5053 127.099 59.6319C126.983 58.9154 126.874 58.2698 126.755 57.5406L137.406 55.9861Z" fill="white"/>
<path d="M12.9444 108.97L11.6785 107.286C12.3444 106.78 12.9849 106.304 13.6356 105.83C15.0357 104.818 16.4206 103.767 17.8612 102.807C18.3991 102.489 18.99 102.27 19.6057 102.162C21.5425 101.729 23.4718 104.164 22.7578 105.921C22.4463 106.668 21.9559 107.326 21.3299 107.838C19.4006 109.377 17.3853 110.808 15.3801 112.299C15.018 111.818 14.6838 111.36 14.3344 110.909C14.0812 110.588 14.2711 110.451 14.5294 110.261C16.4046 108.892 18.2714 107.509 20.1298 106.111C20.3721 105.887 20.5833 105.632 20.7577 105.352C20.8647 105.221 20.9188 105.055 20.9094 104.886C20.9001 104.718 20.8278 104.558 20.707 104.44C20.4538 104.139 20.1323 103.992 19.7753 104.187C19.0917 104.58 18.4031 104.972 17.765 105.428C16.1624 106.582 14.5851 107.762 12.9444 108.97Z" fill="white"/>
<path d="M134.926 91.0296C134.673 91.6803 134.435 92.3107 134.167 92.9867C132.863 92.4803 131.584 91.974 130.301 91.4676C129.253 91.0625 128.202 90.66 127.143 90.2878C126.849 90.1753 126.531 90.1413 126.219 90.189C125.915 90.2523 125.645 90.4254 125.46 90.6751C125.414 90.7575 125.386 90.8482 125.377 90.9418C125.367 91.0354 125.377 91.13 125.404 91.2198C125.432 91.3096 125.478 91.3929 125.539 91.4646C125.6 91.5364 125.674 91.5951 125.759 91.6372C126.259 91.9476 126.781 92.2209 127.321 92.455C129.288 93.2424 131.268 93.9969 133.243 94.7666C133.308 94.8005 133.372 94.8385 133.433 94.8805C133.179 95.4983 132.926 96.1211 132.673 96.7946C131.539 96.3642 130.455 95.9565 129.382 95.5413C128.402 95.1615 127.422 94.7818 126.452 94.3817C125.333 93.9184 124.3 93.369 123.708 92.1993C123.034 90.8853 123.979 88.2218 125.986 88.0648C126.931 88.0284 127.871 88.2013 128.741 88.5712C130.746 89.3181 132.731 90.1131 134.724 90.8903C134.795 90.9317 134.862 90.9783 134.926 91.0296Z" fill="white"/>
<path d="M94.1183 4.14973L96.0957 4.8789C95.8425 5.58021 95.6146 6.26887 95.364 6.95246C94.8272 8.40573 94.3082 9.86407 93.736 11.3047C93.298 12.4161 92.7385 13.4542 91.5586 13.9783C89.7863 14.7758 87.4925 13.3732 87.4723 11.4161C87.4726 10.7696 87.5813 10.1278 87.7938 9.51721C88.5685 7.27147 89.4015 5.046 90.2395 2.7395C90.9257 2.99268 91.5738 3.22055 92.2473 3.46614C91.4447 5.61819 90.6472 7.72214 89.8851 9.83621C89.7217 10.3288 89.6156 10.8385 89.5686 11.3553C89.5332 11.5502 89.5714 11.7512 89.6756 11.9196C89.7799 12.088 89.943 12.2117 90.1332 12.2668C90.3112 12.3316 90.5071 12.3275 90.6822 12.2554C90.8574 12.1832 90.9993 12.0482 91.0801 11.8769C91.3873 11.354 91.6515 10.807 91.87 10.2413C92.6271 8.2361 93.3537 6.22583 94.1183 4.14973Z" fill="white"/>
<path d="M98.6192 131.581C98.6192 129.903 98.6192 128.368 98.6192 126.834C98.6284 126.672 98.5963 126.51 98.5259 126.363C98.4555 126.217 98.3491 126.09 98.2167 125.996C96.7153 124.778 95.2418 123.527 93.7581 122.284C93.7126 122.227 93.6736 122.165 93.6416 122.099C94.2265 121.783 94.7911 121.449 95.3835 121.175C95.4793 121.153 95.5788 121.153 95.6745 121.176C95.7702 121.198 95.8594 121.242 95.9355 121.304C96.9482 122.221 97.9609 123.16 98.9737 124.089L99.161 124.013C99.0806 123.608 98.9662 123.21 98.8192 122.824C98.3838 121.912 97.8926 121.028 97.4039 120.094L99.2699 119.097L104.311 128.528L102.452 129.54L100.31 125.558L100.24 125.588C100.318 126.33 100.404 127.072 100.478 127.816C100.551 128.561 100.622 129.361 100.673 130.135C100.673 130.275 100.635 130.492 100.538 130.548C99.9535 130.885 99.3408 131.181 98.6192 131.581Z" fill="white"/>
<path d="M15.4341 91.9385L16.3329 93.7563L14.3708 95.2754C14.6493 95.8122 14.9227 96.3439 15.2164 96.9186C15.8873 96.7287 16.5279 96.5641 17.1583 96.3616C17.5052 96.2502 17.6925 96.316 17.8318 96.673C18.0115 97.1338 18.2597 97.5693 18.5179 98.0959C17.4596 98.3744 16.4519 98.6377 15.4417 98.8985C13.1023 99.5036 10.7629 100.099 8.42857 100.714C8.0412 100.815 7.80827 100.754 7.64624 100.369C7.45722 99.9088 7.23904 99.4606 6.99302 99.0276C6.79048 98.6782 6.88416 98.4706 7.17785 98.2453C9.82614 96.2198 12.4702 94.1901 15.1101 92.1562C15.1961 92.0777 15.2822 92.022 15.4341 91.9385ZM9.45902 98.663L9.47675 98.7364L13.6289 97.4705C13.396 97.0148 13.1935 96.6148 12.9757 96.1844L9.45902 98.663Z" fill="white"/>
<path d="M13.7901 49.887C13.6103 50.5428 13.4761 51.1149 13.2837 51.6593C13.2508 51.758 12.99 51.8315 12.8381 51.8264C12.2634 51.8061 11.6912 51.7606 11.1215 51.6998C10.8506 51.6694 10.7215 51.7352 10.6607 52.0213C10.562 52.4897 10.4075 52.948 10.2683 53.4619L12.4963 54.5785C12.3216 55.1988 12.1494 55.8115 11.9418 56.5558L2.22974 51.477C2.43228 50.758 2.63736 50.1073 2.79433 49.4515C2.87029 49.1199 3.04752 49.0566 3.34121 49.0819C5.57175 49.2591 7.80482 49.4237 10.0354 49.5883C11.2506 49.6819 12.4659 49.7832 13.7901 49.887ZM9.09352 51.4289L4.83752 50.8972L4.80967 50.9732L8.71375 52.8113L9.09352 51.4289Z" fill="white"/>
<path d="M125.964 83.8566C126.091 83.1882 126.177 82.6059 126.326 82.0438C126.357 81.9248 126.615 81.7906 126.774 81.7906C127.453 81.7628 128.136 81.7779 128.833 81.7779C128.952 81.2716 129.086 80.7652 129.169 80.2588C129.162 80.1788 129.135 80.1018 129.091 80.0347C129.047 79.9676 128.987 79.9124 128.916 79.874C128.369 79.6208 127.797 79.398 127.248 79.1398C127.131 79.0866 126.995 78.9018 126.995 78.798C127.073 78.2182 127.197 77.6435 127.316 77.0105L137.365 81.4159C137.221 82.1754 137.112 82.9122 136.917 83.6388C136.884 83.7654 136.547 83.892 136.352 83.892C133.598 83.892 130.843 83.8667 128.088 83.849C127.4 83.8515 126.703 83.8566 125.964 83.8566ZM130.544 81.9881L134.8 82.178L134.823 82.102L130.802 80.5576L130.544 81.9881Z" fill="white"/>
<path d="M125.4 44.9505C125.185 44.4441 125.003 43.963 124.762 43.5124C124.704 43.4468 124.63 43.3963 124.548 43.3655C124.465 43.3346 124.376 43.3242 124.289 43.3352C123.621 43.4592 122.96 43.6314 122.263 43.7959L121.431 41.9351C122.19 41.7654 122.932 41.5933 123.666 41.4413C126.363 40.8818 129.056 40.3248 131.768 39.7881C131.864 39.7808 131.961 39.7973 132.049 39.8361C132.137 39.875 132.215 39.935 132.274 40.0109C132.56 40.5476 132.781 41.1198 133.034 41.6667C133.186 41.973 133.079 42.1072 132.821 42.2844C130.51 43.8744 128.213 45.4796 125.912 47.0797L124.226 48.252L123.41 46.3784L125.4 44.9505ZM130.388 41.854L130.36 41.7502L126.269 42.7781C126.487 43.2567 126.671 43.6668 126.866 44.0922L130.388 41.854Z" fill="white"/>
<path d="M21.7875 18.3232C22.3521 17.8346 22.8433 17.389 23.3623 16.9814C23.4382 16.9536 23.5196 16.9444 23.5998 16.9545C23.6799 16.9647 23.7565 16.9938 23.8231 17.0396C25.1548 18.1485 26.4739 19.2752 27.793 20.3993C28.3526 20.9024 28.9382 21.3757 29.5476 21.8172C28.2006 19.6145 26.8512 17.4143 25.4814 15.1787L27.2537 13.6748C28.0588 15.2243 28.8209 16.6953 29.5881 18.1612C30.432 19.7647 31.2759 21.3682 32.1199 22.9717C32.287 23.2882 32.3376 23.511 31.9705 23.7489C31.5946 24.0173 31.2415 24.3162 30.9147 24.6427C30.87 24.699 30.8137 24.7452 30.7497 24.7781C30.6857 24.811 30.6154 24.8298 30.5436 24.8334C30.4717 24.837 30.3999 24.8253 30.3329 24.7989C30.2659 24.7726 30.2054 24.7323 30.1552 24.6807C28.0673 23.0856 25.9794 21.499 23.8915 19.9208L21.7875 18.3232Z" fill="white"/>
<path d="M0.294525 61.7259C0.436308 60.9056 0.547708 60.2068 0.692022 59.432H8.60145L8.62677 59.3004L1.07433 56.9129C1.1832 56.1255 1.28447 55.3938 1.39334 54.6013C1.93768 54.8039 2.40607 54.971 2.88712 55.1583C5.08137 56.0259 7.27562 56.8977 9.46987 57.7737C10.0876 58.0269 10.7079 58.2573 11.308 58.5332C11.3813 58.581 11.4424 58.6453 11.4863 58.7209C11.5303 58.7965 11.5559 58.8814 11.5612 58.9687C11.5242 59.5223 11.4464 60.0723 11.3282 60.6144C11.2916 60.7037 11.2336 60.7826 11.1595 60.8444C11.0854 60.9062 10.9973 60.9489 10.9029 60.9689C8.1356 61.1714 5.36578 61.3436 2.59849 61.5309C1.86426 61.5841 1.14016 61.655 0.294525 61.7259Z" fill="white"/>
<path d="M67.4546 127.308H69.1256C69.3788 127.308 69.5332 127.387 69.5205 127.693C69.399 130.539 69.2876 133.384 69.1712 136.23C69.156 136.638 69.1028 137.043 69.1129 137.448C69.1129 137.79 68.9762 137.932 68.6648 137.922C67.5964 137.891 66.5051 137.967 65.462 137.785C63.6568 137.468 62.9631 135.759 63.2543 134.083C63.5986 132.081 64.8924 131.22 66.8925 131.164C67.0039 131.164 67.1128 131.164 67.3634 131.141C67.3634 130.496 67.3508 129.855 67.3634 129.215C67.3761 128.574 67.4242 127.964 67.4546 127.308ZM67.0773 132.969C66.8262 132.876 66.5512 132.871 66.2964 132.953C66.0416 133.035 65.8218 133.2 65.6722 133.422C65.4734 133.716 65.3482 134.054 65.3072 134.406C65.2662 134.759 65.3107 135.116 65.4367 135.448C65.5177 135.697 65.6794 135.912 65.8962 136.059C66.1131 136.207 66.3727 136.277 66.6343 136.261C66.7811 136.261 67.052 136.048 67.0571 135.924C67.0925 134.942 67.0773 133.967 67.0773 132.969Z" fill="white"/>
<path d="M8.06802 36.3721L10.3872 32.3035L11.9924 33.2402C11.5746 33.977 11.1746 34.6758 10.7264 35.4505L12.8051 36.643C13.2178 35.929 13.5925 35.2784 14.0077 34.5644L15.5268 35.4353C15.1217 36.1493 14.7394 36.8177 14.3343 37.5292L16.8028 38.9217C17.2712 38.1241 17.7244 37.357 18.1928 36.5645L19.7853 37.4785L17.3725 41.7041L8.06802 36.3721Z" fill="white"/>
<path d="M111.616 118.048L109.783 119.618L108.642 118.284L110.454 116.689L108.629 114.552L106.545 116.324C106.143 115.856 105.753 115.408 105.335 114.924L109.037 111.782C111.376 114.514 113.677 117.195 116.004 119.909L112.444 122.948L111.239 121.535L113.174 119.879C112.66 119.281 112.153 118.679 111.616 118.048Z" fill="white"/>
<path d="M119.294 110.294L117.912 109.213L119.367 107.294L117.15 105.585C116.585 106.304 116.041 106.995 115.471 107.725L114 106.6L116.977 102.757L125.446 109.299L122.601 113.013L121.132 111.889L122.682 109.864L120.798 108.395L119.294 110.294Z" fill="white"/>
<path d="M91.0741 130.009L90.4235 128.388L92.6565 127.457C92.3097 126.578 91.9755 125.743 91.6286 124.867L89.0968 125.844C88.8714 125.284 88.6562 124.743 88.4132 124.138L92.9198 122.337C94.2415 125.669 95.5453 128.951 96.8746 132.295L92.5223 134.019L91.8337 132.313C92.6261 131.994 93.3882 131.69 94.2136 131.363C93.9224 130.629 93.6414 129.92 93.33 129.143L91.0741 130.009Z" fill="white"/>
<path d="M51.5454 124.574C50.32 127.964 49.1275 131.273 47.9122 134.643L43.5068 133.055L44.1297 131.344L46.5526 132.164L47.3628 129.931L45.0842 129.095L45.6842 127.437L47.9477 128.242L48.9072 125.612L46.3754 124.645C46.578 124.067 46.7704 123.518 46.983 122.915L51.5454 124.574Z" fill="white"/>
<path d="M127.151 50.8648C127.265 51.6015 127.333 52.2395 127.472 52.8598C127.511 53.1109 127.638 53.34 127.83 53.5064C128.022 53.6728 128.266 53.7658 128.52 53.7688C128.8 53.7842 129.077 53.7119 129.314 53.5621C129.55 53.4124 129.734 53.1925 129.839 52.9333C130.108 52.3079 130.31 51.6522 130.599 51.0395C131.25 49.6647 132.409 48.9988 133.799 49.1532C135.108 49.295 136.139 50.247 136.503 51.6522C136.944 53.3434 136.673 53.6472 134.754 53.5561C134.777 53.1598 134.777 52.7625 134.754 52.3661C134.678 51.7079 134.27 51.28 133.741 51.2192C133.212 51.1585 132.771 51.4091 132.506 52.0319C132.24 52.6548 132.057 53.2801 131.789 53.8852C131.517 54.4876 131.073 54.9955 130.511 55.344C129.95 55.6926 129.297 55.8661 128.637 55.8423C127.977 55.8061 127.345 55.5646 126.828 55.1515C126.312 54.7384 125.938 54.1745 125.758 53.5384C125.59 52.8249 125.485 52.098 125.444 51.3661C125.454 51.2862 125.485 51.2103 125.533 51.1456C125.581 51.0809 125.644 51.0295 125.718 50.9964C126.209 50.923 126.725 50.9002 127.151 50.8648Z" fill="white"/>
<path d="M80.9637 9.264C81.4701 9.51718 81.9283 9.74251 82.3992 9.93999C83.0879 10.2261 83.7588 10.0767 84.1082 9.5906C84.4576 9.10449 84.3766 8.45635 83.9335 7.89934C83.5664 7.44108 83.174 7.00814 82.7917 6.55748C82.4908 6.21776 82.2668 5.81713 82.1348 5.38294C82.0029 4.94874 81.9662 4.4912 82.0273 4.04153C82.0883 3.59186 82.2457 3.16066 82.4886 2.77734C82.7315 2.39403 83.0542 2.06763 83.4347 1.82043C84.4703 1.11658 86.5768 1.35204 87.6502 2.30907L86.9489 3.88133C86.5121 3.66936 86.0602 3.48996 85.5969 3.34459C85.0906 3.22053 84.5842 3.25344 84.2829 3.78259C84.012 4.25351 84.0854 4.78013 84.5007 5.26371C84.8728 5.69919 85.2881 6.09668 85.6476 6.52962C86.7641 7.90441 86.6603 9.31463 85.9008 10.535C85.1412 11.7553 83.5082 12.249 82.0701 11.773C81.4498 11.568 80.8624 11.2667 80.2117 10.9856L80.9637 9.264Z" fill="white"/>
<path d="M23.2119 117.781C23.5841 118.214 23.8803 118.614 24.2247 118.956C24.3806 119.118 24.5853 119.226 24.8077 119.262C25.0301 119.298 25.2583 119.261 25.4576 119.156C25.6714 119.058 25.8466 118.892 25.9561 118.684C26.0656 118.476 26.1031 118.238 26.0628 118.006C26.0055 117.529 25.9047 117.058 25.7615 116.599C25.1614 114.763 25.807 113.117 27.5135 112.295C27.9809 112.06 28.5042 111.959 29.0253 112.004C29.5464 112.049 30.045 112.237 30.4656 112.548C31.1188 112.996 31.6378 113.647 32.1898 114.236C32.443 114.49 32.443 114.776 32.0784 115.016C31.7138 115.257 31.3948 115.558 31.1188 115.776C30.5871 115.214 30.1517 114.639 29.5997 114.204C29.4411 114.065 29.2459 113.974 29.0374 113.943C28.8288 113.912 28.6157 113.942 28.4235 114.028C28.2314 114.115 28.0682 114.255 27.9535 114.432C27.8388 114.609 27.7775 114.816 27.7768 115.026C27.7709 115.688 27.8718 116.346 28.0756 116.976C28.5819 118.794 27.63 120.693 25.9336 121.126C24.1816 121.571 22.6144 120.346 21.9739 119.141C21.9502 119.063 21.9462 118.981 21.9621 118.901C21.978 118.822 22.0134 118.747 22.065 118.685C22.4473 118.351 22.8524 118.062 23.2119 117.781Z" fill="white"/>
<path d="M55.8601 5.44603C55.8601 4.08644 55.8601 2.72938 55.8601 1.36979C55.8601 0.967231 55.9639 0.772281 56.3994 0.731772C56.9057 0.683667 57.4121 0.552011 58.0197 0.435547C57.9818 0.797598 57.959 1.11408 57.9134 1.42802C57.6602 3.2003 57.3919 4.97258 57.1539 6.74486C57.1086 7.09216 57.1206 7.44454 57.1893 7.78797C57.407 8.89185 57.6628 9.98813 57.9007 11.0794C57.9098 11.1796 57.9098 11.2804 57.9007 11.3806L55.8981 11.8035C55.7192 11.2085 55.5772 10.6031 55.4727 9.99066C55.293 8.38549 54.617 7.00817 53.7283 5.68656C52.8979 4.45103 52.1484 3.15473 51.3129 1.81033C52.0294 1.67361 52.6852 1.51411 53.3384 1.44068C53.4827 1.42549 53.7156 1.69387 53.8093 1.86097C54.3942 2.96991 54.9512 4.09151 55.5183 5.20804C55.5588 5.28906 55.6044 5.36755 55.6474 5.46123L55.8601 5.44603Z" fill="white"/>
<path d="M31.9546 127.13L30.1368 125.864C30.6659 124.409 31.1925 122.96 31.7597 121.408C30.5267 122.464 29.3671 123.462 28.1847 124.477L26.3972 123.193C27.4302 122.482 28.4075 121.801 29.3949 121.13C30.1849 120.588 31.0381 120.117 31.7647 119.507C32.3141 119.041 32.7218 118.403 33.1648 117.821C33.6079 117.239 34.0636 116.555 34.5548 115.876L36.2764 117.079C35.8622 117.741 35.4117 118.379 34.927 118.991C33.9573 120.089 33.6003 121.434 33.2332 122.788C32.8813 124.09 32.5116 125.383 32.142 126.68C32.087 126.833 32.0245 126.983 31.9546 127.13Z" fill="white"/>
<path d="M101.344 120.077L100.202 118.776C101.397 117.004 103.694 116.206 105.636 117.568C107.519 118.89 108.763 120.693 109.046 123.029C109.144 123.937 108.928 124.851 108.432 125.617C107.937 126.384 107.192 126.957 106.324 127.24C106.247 127.256 106.167 127.252 106.092 127.23C106.016 127.207 105.947 127.166 105.891 127.111C105.656 126.657 105.474 126.176 105.271 125.708C106.97 124.986 107.431 123.698 106.537 122.113C106.129 121.373 105.639 120.682 105.076 120.052C103.815 118.687 102.709 118.713 101.344 120.077Z" fill="white"/>
<path d="M16.6589 23.7257L20.6744 19.4216L22.0998 20.7357C21.6618 21.2243 21.2465 21.6826 20.8339 22.1484L27.2394 28.1058L25.781 29.6553L19.411 23.7131L18.0666 25.0372L16.6589 23.7257Z" fill="white"/>
<path d="M112.997 110.324L111.121 112.291L109.812 111.053L113.154 107.534L120.914 114.917L119.459 116.456L112.997 110.324Z" fill="white"/>
<path d="M19.8556 117.257L18.4251 115.695L24.9572 109.661L23.1318 107.669L24.4458 106.441C25.5547 107.638 26.6282 108.795 27.7372 109.985L19.8556 117.257Z" fill="white"/>
<path d="M138.452 72.7624C138.386 73.489 138.325 74.1473 138.257 74.8891L129.395 74.0992C129.334 74.841 129.256 75.5525 129.218 76.2664C129.198 76.6589 129.074 76.8386 128.648 76.7728C128.223 76.707 127.813 76.6968 127.382 76.6589C127.509 75.0334 127.636 73.4713 127.76 71.8484L138.452 72.7624Z" fill="white"/>
<path d="M20.1156 36.8941L18.8041 35.7776C18.8218 35.7143 18.8193 35.6713 18.8395 35.6485C19.7003 34.8155 19.7206 34.3091 18.7686 33.5825C17.3913 32.5318 15.9583 31.557 14.5481 30.5443L12.5631 29.1164L13.7809 27.3896C14.7936 28.1112 15.7735 28.8176 16.7609 29.5189C17.885 30.324 19.0117 31.1266 20.1409 31.9267C20.1877 31.9567 20.2325 31.9897 20.2751 32.0254C21.9992 33.5268 22.0423 35.1548 20.1156 36.8941Z" fill="white"/>
<path d="M53.2289 125.037L55.2695 125.599C54.3555 129.055 53.4441 132.485 52.5301 135.936L50.4768 135.394L53.2289 125.037Z" fill="white"/>
<path d="M2.18166 85.8339C2.00696 85.1199 1.85505 84.4971 1.67529 83.7882L12.1165 81.3044C12.2761 81.988 12.433 82.6564 12.5976 83.3704L2.18166 85.8339Z" fill="white"/>
<path d="M137.942 48.5151C138.116 49.3962 138.717 50.1583 137.57 50.8546C138.785 51.0014 138.881 51.7913 139 52.7028C138.322 52.4167 137.689 52.1964 137.106 51.8901C136.689 51.6622 136.6 50.3001 136.904 49.9C137.208 49.5 137.537 49.0569 137.942 48.5151Z" fill="white"/>
<path d="M132.696 39.7651C133.425 39.9044 134.053 40.0183 134.676 40.1525C134.745 40.1702 134.811 40.2017 134.868 40.2452C134.925 40.2887 134.972 40.3433 135.007 40.4057C135.278 40.9551 135.514 41.5222 135.833 42.2134C134.954 41.8438 134.154 41.6286 133.509 41.188C133.124 40.9171 132.985 40.2892 132.696 39.7651Z" fill="white"/>
<path d="M93.2245 136.172C93.5613 135.458 93.8119 134.683 94.2651 134.056C94.5183 133.691 95.1183 133.549 95.5614 133.321L95.7007 133.423C95.531 134.086 95.5361 134.894 95.1386 135.37C94.7411 135.846 93.9411 135.995 93.3182 136.286L93.2245 136.172Z" fill="white"/>
</svg>
