<svg width="42" height="40" viewBox="0 0 42 40" fill="none" xmlns="http://www.w3.org/2000/svg">
<mask id="path-1-inside-1" fill="white">
<path d="M21 0.0398254L24.2801 14.2285L37.4184 7.94654L28.3704 19.3576L41.4735 25.7128L26.9106 25.7534L30.1115 39.9602L21 28.5998L11.8884 39.9602L15.0893 25.7534L0.526489 25.7128L13.6295 19.3576L4.58151 7.94654L17.7198 14.2285L21 0.0398254Z"/>
</mask>
<path d="M21 0.0398254L22.9486 -0.410657H19.0514L21 0.0398254ZM24.2801 14.2285L22.3315 14.679L22.8932 17.1085L25.1429 16.0329L24.2801 14.2285ZM37.4184 7.94654L38.9856 9.18915L36.5557 6.14219L37.4184 7.94654ZM28.3704 19.3576L26.8033 18.115L25.254 20.0689L27.4976 21.1571L28.3704 19.3576ZM41.4735 25.7128L41.479 27.7128L42.3463 23.9133L41.4735 25.7128ZM26.9106 25.7534L26.905 23.7534L24.4114 23.7604L24.9595 26.193L26.9106 25.7534ZM30.1115 39.9602L28.5514 41.2115L32.0626 39.5206L30.1115 39.9602ZM21 28.5998L22.5602 27.3485L21 25.4033L19.4398 27.3485L21 28.5998ZM11.8884 39.9602L9.93733 39.5206L13.4486 41.2115L11.8884 39.9602ZM15.0893 25.7534L17.0404 26.193L17.5885 23.7604L15.0949 23.7534L15.0893 25.7534ZM0.526489 25.7128L-0.346304 23.9133L0.520907 27.7128L0.526489 25.7128ZM13.6295 19.3576L14.5023 21.1571L16.746 20.0689L15.1967 18.115L13.6295 19.3576ZM4.58151 7.94654L5.44425 6.14219L3.01438 9.18915L4.58151 7.94654ZM17.7198 14.2285L16.8571 16.0329L19.1068 17.1085L19.6684 14.679L17.7198 14.2285ZM19.0514 0.490307L22.3315 14.679L26.2287 13.778L22.9486 -0.410657L19.0514 0.490307ZM25.1429 16.0329L38.2812 9.75089L36.5557 6.14219L23.4174 12.4241L25.1429 16.0329ZM35.8513 6.70393L26.8033 18.115L29.9376 20.6002L38.9856 9.18915L35.8513 6.70393ZM27.4976 21.1571L40.6007 27.5123L42.3463 23.9133L29.2432 17.5581L27.4976 21.1571ZM41.4679 23.7128L26.905 23.7534L26.9162 27.7534L41.479 27.7128L41.4679 23.7128ZM24.9595 26.193L28.1604 40.3998L32.0626 39.5206L28.8617 25.3138L24.9595 26.193ZM31.6717 38.7088L22.5602 27.3485L19.4398 29.8512L28.5514 41.2115L31.6717 38.7088ZM19.4398 27.3485L10.3282 38.7088L13.4486 41.2115L22.5602 29.8512L19.4398 27.3485ZM13.8395 40.3998L17.0404 26.193L13.1382 25.3138L9.93733 39.5206L13.8395 40.3998ZM15.0949 23.7534L0.532071 23.7128L0.520907 27.7128L15.0837 27.7534L15.0949 23.7534ZM1.39928 27.5123L14.5023 21.1571L12.7567 17.5581L-0.346304 23.9133L1.39928 27.5123ZM15.1967 18.115L6.14865 6.70393L3.01438 9.18915L12.0624 20.6002L15.1967 18.115ZM3.71878 9.75089L16.8571 16.0329L18.5826 12.4241L5.44425 6.14219L3.71878 9.75089ZM19.6684 14.679L22.9486 0.490307L19.0514 -0.410657L15.7712 13.778L19.6684 14.679Z" fill="black" mask="url(#path-1-inside-1)"/>
</svg>
