<svg width="357" height="70" viewBox="0 0 357 70" fill="none" xmlns="http://www.w3.org/2000/svg">
<g clip-path="url(#clip0_2367:4174)">
<path d="M1608 5.72468L1607.71 5.32067C1603.31 1.12481 1591.3 -0.473228 1583.9 1.31889C1577.8 2.79666 1572.54 5.51052 1567.35 8.18667L1567.35 8.18689C1566.24 8.75606 1565.14 9.32354 1564.04 9.87704C1557.66 13.0328 1550.36 15.8835 1542.51 15.7593C1534.85 15.6198 1528.2 12.6523 1521.64 9.72608C1514.04 6.33279 1506.56 2.99493 1497.76 4.18636C1492.06 4.95316 1487.53 7.4986 1482.95 10.0714C1480.17 11.6338 1477.37 13.2064 1474.28 14.3967C1464.33 18.2474 1451.01 17.6029 1442.48 12.8404C1440.53 11.7642 1438.68 10.4752 1436.84 9.18691L1436.84 9.18557C1434.02 7.21818 1431.21 5.25262 1428.02 4.04901C1424.32 1.77408 1418.13 0.556989 1412.49 0.59383C1409.95 0.577292 1407.49 0.813037 1405.4 1.31889C1399.3 2.79666 1394.04 5.51052 1388.85 8.18666L1388.85 8.18688L1388.84 8.18765L1388.82 8.1996C1387.73 8.76451 1386.63 9.32765 1385.54 9.87704C1379.36 12.9327 1372.32 15.7023 1364.76 15.7623C1364.68 15.7616 1364.59 15.7606 1364.51 15.7593C1356.85 15.6198 1350.2 12.6523 1343.64 9.72608C1337.04 6.77926 1330.53 3.87424 1323.17 3.94112C1321.9 3.92955 1320.6 4.00614 1319.27 4.18636C1313.56 4.95317 1309.03 7.49861 1304.45 10.0714C1301.67 11.6338 1298.87 13.2064 1295.78 14.3967C1291.51 16.0485 1286.62 16.8731 1281.76 16.9004C1275.46 16.8651 1269.23 15.4901 1264.48 12.8404C1262.53 11.7642 1260.68 10.4752 1258.84 9.18694L1258.84 9.18556C1256.02 7.21817 1253.21 5.25261 1250.02 4.049C1246.32 1.77407 1240.13 0.556988 1234.49 0.59383C1231.95 0.577292 1229.49 0.813037 1227.4 1.31889C1221.3 2.7967 1216.04 5.51069 1210.85 8.18692L1210.84 8.18769L1210.84 8.18831L1210.84 8.18988C1209.74 8.758 1208.64 9.32455 1207.54 9.87704C1201.36 12.9327 1194.32 15.7023 1186.76 15.7623C1186.68 15.7616 1186.59 15.7606 1186.51 15.7593C1178.85 15.6198 1172.2 12.6523 1165.64 9.72608C1159.04 6.77925 1152.53 3.87423 1145.17 3.94112C1143.9 3.92955 1142.6 4.00614 1141.27 4.18636C1135.56 4.95316 1131.03 7.4986 1126.45 10.0714C1123.67 11.6338 1120.87 13.2064 1117.78 14.3967C1113.51 16.0485 1108.62 16.8731 1103.76 16.9004C1097.46 16.8651 1091.23 15.4901 1086.48 12.8404C1084.53 11.7642 1082.68 10.4752 1080.84 9.18691L1080.84 9.18559C1077.66 6.96684 1074.49 4.7504 1070.79 3.62658C1067.09 1.65363 1061.44 0.591162 1056.23 0.59302C1053.77 0.592141 1051.4 0.828691 1049.37 1.31889C1043.27 2.79666 1038.01 5.51052 1032.82 8.18667L1032.82 8.1869L1032.81 8.18933L1032.81 8.1904C1031.71 8.75825 1030.61 9.32482 1029.51 9.87704C1023.27 12.9652 1016.14 15.7612 1008.49 15.7632C1008.33 15.7632 1008.17 15.7619 1008.01 15.7593C1000.35 15.6198 993.7 12.6523 987.142 9.72608C980.61 6.81094 974.169 3.9367 966.908 3.93999C965.708 3.93934 964.487 4.01719 963.238 4.18636C957.529 4.95316 952.999 7.49861 948.42 10.0714C945.639 11.6338 942.84 13.2064 939.749 14.3967C935.411 16.0759 930.433 16.9003 925.49 16.9011C919.108 16.8983 912.787 15.5223 907.983 12.8404C906.031 11.7638 904.185 10.4743 902.339 9.18557C899.144 6.95409 895.952 4.72497 892.224 3.60734C886.776 0.720992 877.164 -0.203845 870.876 1.31889C864.773 2.79671 859.51 5.51071 854.32 8.18695C853.216 8.7561 852.115 9.32355 851.011 9.87704C844.634 13.0329 837.332 15.8835 829.487 15.7593C821.823 15.6198 815.173 12.6523 808.616 9.72608C801.012 6.33279 793.532 2.99493 784.739 4.18636C779.03 4.95317 774.5 7.49861 769.921 10.0714C767.14 11.6338 764.341 13.2064 761.25 14.3967C751.302 18.2474 737.989 17.6029 729.456 12.8404C727.505 11.7638 725.658 10.4743 723.813 9.18557C719.999 6.52205 716.189 3.86186 711.468 3.09122C705.901 0.614741 697.08 -0.109927 691.183 1.31815C685.08 2.79597 679.816 5.50996 674.626 8.18619L674.621 8.18872L674.619 8.19004L674.618 8.19056L674.617 8.19096C673.516 8.75853 672.419 9.32438 671.318 9.87633C664.941 13.0322 657.639 15.8828 649.794 15.7586C642.13 15.6191 635.48 12.6516 628.922 9.72538C621.318 6.33207 613.839 2.9942 605.046 4.18564C599.337 4.95245 594.806 7.49789 590.227 10.0707C587.447 11.6331 584.648 13.2057 581.556 14.396C571.608 18.2467 558.295 17.6023 549.763 12.8397C547.811 11.7631 545.965 10.4736 544.119 9.18491C540.943 6.9671 537.771 4.75133 534.072 3.62715C528.631 0.724652 518.989 -0.208185 512.685 1.31815C506.582 2.796 501.319 5.51004 496.129 8.18631C495.025 8.75544 493.925 9.32287 492.82 9.87634C486.444 13.0322 479.142 15.8828 471.297 15.7587C463.633 15.6191 456.983 12.6516 450.425 9.72537C442.821 6.33207 435.341 2.9942 426.548 4.18564C420.839 4.95245 416.309 7.49789 411.73 10.0707C408.949 11.6331 406.151 13.2057 403.059 14.396C393.111 18.2467 379.798 17.6023 371.266 12.8397C369.314 11.7631 367.468 10.4737 365.622 9.18507L365.622 9.18486C362.328 6.8848 359.038 4.58724 355.162 3.50676C349.682 0.699277 340.221 -0.186594 334.006 1.3184C327.903 2.79618 322.64 5.51006 317.45 8.18622L317.447 8.18775C316.344 8.75642 315.244 9.32359 314.141 9.8766C307.764 13.0324 300.462 15.8831 292.617 15.7589C284.953 15.6194 278.303 12.6519 271.746 9.72566C264.142 6.33234 256.662 2.99445 247.869 4.18589C242.16 4.95266 237.63 7.49788 233.052 10.0705L233.051 10.0706C230.271 11.6331 227.471 13.2059 224.38 14.3963C214.431 18.247 201.118 17.6025 192.586 12.84C190.635 11.7634 188.788 10.474 186.943 9.18533L186.943 9.18512L186.942 9.18482C183.765 6.96613 180.591 4.74981 176.891 3.62605C171.449 0.724605 161.809 -0.207706 155.507 1.3184C149.404 2.79618 144.141 5.51004 138.951 8.18619L138.951 8.18626L138.939 8.1922C137.839 8.75945 136.742 9.32496 135.642 9.8766C129.265 13.0324 121.963 15.8831 114.118 15.7589C106.454 15.6194 99.8041 12.6519 93.2467 9.72565C85.6427 6.33234 78.1628 2.99445 69.3699 4.18589C63.6609 4.95269 59.1307 7.49808 54.5518 10.0708L54.5516 10.0709L54.5516 10.0709C51.7709 11.6334 48.9722 13.2059 45.8805 14.3963C35.9324 18.247 22.6194 17.6025 14.087 12.84C12.1357 11.7634 10.2892 10.474 8.44382 9.18533L8.4436 9.18518C3.51489 5.74324 -1.40588 2.30686 -8.29663 2.9463V70.1508H1608V5.72468Z" fill="black"/>
</g>
<defs>
<clipPath id="clip0_2367:4174">
<rect width="357" height="70" fill="white"/>
</clipPath>
</defs>
</svg>
