<svg width="357" height="160" viewBox="0 0 357 160" fill="none" xmlns="http://www.w3.org/2000/svg">
<g clip-path="url(#clip0_2324:4102)">
<path d="M1588 5.72468L1587.71 5.32067C1583.31 1.12481 1571.3 -0.473228 1563.9 1.31889C1557.8 2.79666 1552.54 5.51052 1547.35 8.18667L1547.35 8.18689C1546.24 8.75606 1545.14 9.32354 1544.04 9.87704C1537.66 13.0328 1530.36 15.8835 1522.51 15.7593C1514.85 15.6198 1508.2 12.6523 1501.64 9.72608C1494.04 6.33279 1486.56 2.99493 1477.76 4.18636C1472.06 4.95316 1467.53 7.4986 1462.95 10.0714C1460.17 11.6338 1457.37 13.2064 1454.28 14.3967C1444.33 18.2474 1431.01 17.6029 1422.48 12.8404C1420.53 11.7642 1418.68 10.4752 1416.84 9.18691L1416.84 9.18557C1414.02 7.21818 1411.21 5.25262 1408.02 4.04901C1404.32 1.77408 1398.13 0.556989 1392.49 0.59383C1389.95 0.577292 1387.49 0.813037 1385.4 1.31889C1379.3 2.79666 1374.04 5.51052 1368.85 8.18666L1368.85 8.18688L1368.84 8.18765L1368.82 8.1996C1367.73 8.76451 1366.63 9.32765 1365.54 9.87704C1359.36 12.9327 1352.32 15.7023 1344.76 15.7623C1344.68 15.7616 1344.59 15.7606 1344.51 15.7593C1336.85 15.6198 1330.2 12.6523 1323.64 9.72608C1317.04 6.77926 1310.53 3.87424 1303.17 3.94112C1301.9 3.92955 1300.6 4.00614 1299.27 4.18636C1293.56 4.95317 1289.03 7.49861 1284.45 10.0714C1281.67 11.6338 1278.87 13.2064 1275.78 14.3967C1271.51 16.0485 1266.62 16.8731 1261.76 16.9004C1255.46 16.8651 1249.23 15.4901 1244.48 12.8404C1242.53 11.7642 1240.68 10.4752 1238.84 9.18694L1238.84 9.18556C1236.02 7.21817 1233.21 5.25261 1230.02 4.049C1226.32 1.77407 1220.13 0.556988 1214.49 0.59383C1211.95 0.577292 1209.49 0.813037 1207.4 1.31889C1201.3 2.7967 1196.04 5.51069 1190.85 8.18692L1190.84 8.18769L1190.84 8.18831L1190.84 8.18988C1189.74 8.758 1188.64 9.32455 1187.54 9.87704C1181.36 12.9327 1174.32 15.7023 1166.76 15.7623C1166.68 15.7616 1166.59 15.7606 1166.51 15.7593C1158.85 15.6198 1152.2 12.6523 1145.64 9.72608C1139.04 6.77925 1132.53 3.87423 1125.17 3.94112C1123.9 3.92955 1122.6 4.00614 1121.27 4.18636C1115.56 4.95316 1111.03 7.4986 1106.45 10.0714C1103.67 11.6338 1100.87 13.2064 1097.78 14.3967C1093.51 16.0485 1088.62 16.8731 1083.76 16.9004C1077.46 16.8651 1071.23 15.4901 1066.48 12.8404C1064.53 11.7642 1062.68 10.4752 1060.84 9.18691L1060.84 9.18559C1057.66 6.96684 1054.49 4.7504 1050.79 3.62658C1047.09 1.65363 1041.44 0.591162 1036.23 0.59302C1033.77 0.592141 1031.4 0.828691 1029.37 1.31889C1023.27 2.79666 1018.01 5.51052 1012.82 8.18667L1012.82 8.1869L1012.81 8.18933L1012.81 8.1904C1011.71 8.75825 1010.61 9.32482 1009.51 9.87704C1003.27 12.9652 996.144 15.7612 988.49 15.7632C988.331 15.7632 988.172 15.7619 988.013 15.7593C980.349 15.6198 973.7 12.6523 967.142 9.72608C960.61 6.81094 954.169 3.9367 946.908 3.93999C945.708 3.93934 944.487 4.01719 943.238 4.18636C937.529 4.95316 932.999 7.49861 928.42 10.0714C925.639 11.6338 922.84 13.2064 919.749 14.3967C915.411 16.0759 910.433 16.9003 905.49 16.9011C899.108 16.8983 892.787 15.5223 887.983 12.8404C886.031 11.7638 884.185 10.4743 882.339 9.18557C879.144 6.95409 875.952 4.72497 872.224 3.60734C866.776 0.720992 857.164 -0.203845 850.876 1.31889C844.773 2.79671 839.51 5.51071 834.32 8.18695C833.216 8.7561 832.115 9.32355 831.011 9.87704C824.634 13.0329 817.332 15.8835 809.487 15.7593C801.823 15.6198 795.173 12.6523 788.616 9.72608C781.012 6.33279 773.532 2.99493 764.739 4.18636C759.03 4.95317 754.5 7.49861 749.921 10.0714C747.14 11.6338 744.341 13.2064 741.25 14.3967C731.302 18.2474 717.989 17.6029 709.456 12.8404C707.505 11.7638 705.658 10.4743 703.813 9.18557C699.999 6.52205 696.189 3.86186 691.468 3.09122C685.901 0.614741 677.08 -0.109927 671.183 1.31815C665.08 2.79597 659.816 5.50996 654.626 8.18619L654.621 8.18872L654.619 8.19004L654.618 8.19056L654.617 8.19096C653.516 8.75853 652.419 9.32438 651.318 9.87633C644.941 13.0322 637.639 15.8828 629.794 15.7586C622.13 15.6191 615.48 12.6516 608.922 9.72538C601.318 6.33207 593.839 2.9942 585.046 4.18564C579.337 4.95245 574.806 7.49789 570.227 10.0707C567.447 11.6331 564.648 13.2057 561.556 14.396C551.608 18.2467 538.295 17.6023 529.763 12.8397C527.811 11.7631 525.965 10.4736 524.119 9.18491C520.943 6.9671 517.771 4.75133 514.072 3.62715C508.631 0.724652 498.989 -0.208185 492.685 1.31815C486.582 2.796 481.319 5.51004 476.129 8.18631C475.025 8.75544 473.925 9.32287 472.82 9.87634C466.444 13.0322 459.142 15.8828 451.297 15.7587C443.633 15.6191 436.983 12.6516 430.425 9.72537C422.821 6.33207 415.341 2.9942 406.548 4.18564C400.839 4.95245 396.309 7.49789 391.73 10.0707C388.949 11.6331 386.151 13.2057 383.059 14.396C373.111 18.2467 359.798 17.6023 351.266 12.8397C349.314 11.7631 347.468 10.4737 345.622 9.18507L345.622 9.18486C342.328 6.8848 339.038 4.58724 335.162 3.50676C329.682 0.699277 320.221 -0.186594 314.006 1.3184C307.903 2.79618 302.64 5.51006 297.45 8.18622L297.447 8.18775C296.344 8.75642 295.244 9.32359 294.141 9.8766C287.764 13.0324 280.462 15.8831 272.617 15.7589C264.953 15.6194 258.303 12.6519 251.746 9.72566C244.142 6.33234 236.662 2.99445 227.869 4.18589C222.16 4.95266 217.63 7.49788 213.052 10.0705L213.051 10.0706C210.271 11.6331 207.471 13.2059 204.38 14.3963C194.431 18.247 181.118 17.6025 172.586 12.84C170.635 11.7634 168.788 10.474 166.943 9.18533L166.943 9.18512L166.942 9.18482C163.765 6.96613 160.591 4.74981 156.891 3.62605C151.449 0.724605 141.809 -0.207706 135.507 1.3184C129.404 2.79618 124.141 5.51004 118.951 8.18619L118.951 8.18626L118.939 8.1922C117.839 8.75945 116.742 9.32496 115.642 9.8766C109.265 13.0324 101.963 15.8831 94.1178 15.7589C86.4539 15.6194 79.8041 12.6519 73.2467 9.72565C65.6427 6.33234 58.1628 2.99445 49.3699 4.18589C43.6609 4.95269 39.1307 7.49808 34.5518 10.0708L34.5516 10.0709L34.5516 10.0709C31.7709 11.6334 28.9722 13.2059 25.8805 14.3963C15.9324 18.247 2.61938 17.6025 -5.91296 12.84C-7.86431 11.7634 -9.7108 10.474 -11.5562 9.18533L-11.5564 9.18518C-16.4851 5.74324 -21.4059 2.30686 -28.2966 2.9463V160.151H1588V5.72468Z" fill="#FF7A00"/>
</g>
<defs>
<clipPath id="clip0_2324:4102">
<rect width="357" height="160" fill="white"/>
</clipPath>
</defs>
</svg>
