<svg width="52" height="52" viewBox="0 0 52 52" fill="none" xmlns="http://www.w3.org/2000/svg">
<path d="M39.0408 30.2007C39.0408 30.2007 21.6105 30.2007 14.0733 30.2007C6.13987 30.2007 6.04844 21.1702 14.0733 21.1702H43.777M27.4086 30.1895C27.4086 30.1895 36.4636 30.1895 40.38 30.1895C44.5006 30.1895 44.5494 25.4976 40.38 25.4976H28.3443M17.2488 4.04445C17.2488 4.04445 11.138 23.3075 24.2191 48.1531C24.3745 48.4509 25.5418 50.2041 25.6089 47.8498C25.7613 42.5845 25.6089 33.4873 25.6089 28.6841C25.6089 27.2091 25.7978 25.5004 29.062 25.5004C29.062 25.5004 29.4491 25.5004 33.4356 25.5004M28.7043 13.8513C28.7043 16.0875 26.7189 17.9004 24.2698 17.9004C21.8206 17.9004 19.8352 16.0875 19.8352 13.8513C19.8352 11.615 21.8206 9.80218 24.2698 9.80218C26.7189 9.80218 28.7043 11.615 28.7043 13.8513Z" stroke="black" stroke-width="2" stroke-miterlimit="10" stroke-linecap="round"/>
</svg>
