<svg width="52" height="52" viewBox="0 0 52 52" fill="none" xmlns="http://www.w3.org/2000/svg">
<path d="M40.9633 11.3054L11.3871 40.8817M11.3871 11.3054L40.9633 40.8817M16.6345 25.883C16.6345 28.0832 14.8508 29.8669 12.6506 29.8669C10.4503 29.8669 8.66669 28.0832 8.66669 25.883C8.66669 23.6827 10.4503 21.8991 12.6506 21.8991C14.8508 21.8991 16.6345 23.6827 16.6345 25.883ZM43.5204 25.883C43.5204 28.0832 41.7367 29.8669 39.5365 29.8669C37.3362 29.8669 35.5526 28.0832 35.5526 25.883C35.5526 23.6827 37.3362 21.8991 39.5365 21.8991C41.7367 21.8991 43.5204 23.6827 43.5204 25.883ZM30.1591 39.5365C30.1591 41.7368 28.3755 43.5204 26.1752 43.5204C23.975 43.5204 22.1913 41.7368 22.1913 39.5365C22.1913 37.3363 23.975 35.5526 26.1752 35.5526C28.3755 35.5526 30.1591 37.3363 30.1591 39.5365ZM30.1591 12.6506C30.1591 14.8508 28.3755 16.6345 26.1752 16.6345C23.975 16.6345 22.1913 14.8508 22.1913 12.6506C22.1913 10.4503 23.975 8.66667 26.1752 8.66667C28.3755 8.66667 30.1591 10.4503 30.1591 12.6506Z" stroke="black" stroke-width="2" stroke-miterlimit="10" stroke-linecap="round"/>
</svg>
