<svg width="52" height="52" viewBox="0 0 52 52" fill="none" xmlns="http://www.w3.org/2000/svg">
<path d="M6.35553 31.7881H11.7345C12.2199 31.7881 12.6132 31.5582 12.6132 31.0738C12.6132 30.066 12.6132 29.8114 12.6132 28.8037V22.2196V17.1666C12.6132 14.7267 16.4472 14.7904 16.4472 17.1666C16.4472 18.1744 16.4472 21.3144 16.4472 22.3221C16.4472 23.3299 16.4472 32.962 16.4472 32.962C16.4472 32.962 16.4472 34.6593 16.4472 35.6671C16.4472 38.0433 20.2812 38.1069 20.2812 35.6671V16.767V9.17872C20.2812 6.73887 24.1152 6.80251 24.1152 9.17872C24.1152 10.1865 24.1152 40.759 24.1152 40.759C24.1152 40.759 24.1152 42.4563 24.1152 43.464C24.1152 45.8402 27.9492 45.9039 27.9492 43.464V22.1842V17.1348C27.9492 14.6949 31.7832 14.7586 31.7832 17.1348C31.7832 18.1425 31.7832 21.3603 31.7832 22.3716C31.7832 23.3829 31.7832 32.9656 31.7832 32.9656C31.7832 32.9656 31.7832 34.6629 31.7832 35.6706C31.7832 38.0468 35.6172 38.1105 35.6172 35.6706V33.991V28.832C35.6172 26.3921 39.4512 26.4557 39.4512 28.832C39.4512 29.8397 39.4512 30.066 39.4512 31.0738C39.4512 31.5582 39.8446 31.7881 40.33 31.7881H45.709" stroke="black" stroke-width="2" stroke-miterlimit="10"/>
</svg>
