<svg width="20" height="20" viewBox="0 0 20 20" fill="none" xmlns="http://www.w3.org/2000/svg">
<g clip-path="url(#clip0_2947_4131)">
<path d="M10 1.80189C12.6703 1.80189 12.9863 1.81221 14.041 1.86024C15.0159 1.9047 15.5454 2.06745 15.8979 2.20439C16.3328 2.36452 16.7262 2.62022 17.0491 2.95265C17.3815 3.27553 17.6372 3.66893 17.7973 4.10381C17.9343 4.4563 18.097 4.98583 18.1415 5.96075C18.1895 7.01544 18.1998 7.33142 18.1998 10.0017C18.1998 12.672 18.1895 12.988 18.1415 14.0427C18.097 15.0176 17.9343 15.5471 17.7973 15.8996C17.6308 16.3308 17.3759 16.7224 17.0491 17.0492C16.7222 17.376 16.3307 17.6309 15.8995 17.7974C15.547 17.9344 15.0175 18.0971 14.0426 18.1416C12.9883 18.1896 12.6719 18.1999 10.0016 18.1999C7.3313 18.1999 7.01493 18.1896 5.96062 18.1416C4.98571 18.0971 4.45618 17.9344 4.10368 17.7974C3.6688 17.6373 3.27541 17.3816 2.95252 17.0492C2.6201 16.7263 2.3644 16.3329 2.20427 15.898C2.06732 15.5455 1.90457 15.016 1.86011 14.0411C1.81208 12.9864 1.80176 12.6704 1.80176 10.0001C1.80176 7.32983 1.81208 7.01386 1.86011 5.95916C1.90457 4.98424 2.06732 4.45471 2.20427 4.10222C2.3644 3.66734 2.6201 3.27395 2.95252 2.95106C3.27541 2.61864 3.6688 2.36293 4.10368 2.20281C4.45618 2.06586 4.98571 1.90311 5.96062 1.85865C7.01532 1.81062 7.3313 1.8003 10.0016 1.8003L10 1.80189ZM10.0016 -0.00146484C7.28565 -0.00146484 6.94506 0.0100467 5.87845 0.0588718C4.81184 0.107697 4.08582 0.277989 3.44951 0.52529C2.7823 0.776342 2.17786 1.16986 1.67831 1.67843C1.17046 2.17818 0.777622 2.7826 0.527151 3.44963C0.277866 4.08594 0.108765 4.81276 0.0603366 5.87699C0.0119085 6.94121 0 7.28418 0 10.0001C0 12.7161 0.0115116 13.0566 0.0603366 14.1233C0.109162 15.1899 0.277866 15.9143 0.525167 16.5506C0.776219 17.2178 1.16974 17.8223 1.67831 18.3218C2.17795 18.8304 2.78236 19.224 3.44951 19.4754C4.08463 19.7223 4.81264 19.8914 5.87687 19.9402C6.94109 19.989 7.28406 20.0001 10 20.0001C12.7159 20.0001 13.0565 19.9886 14.1231 19.9402C15.1897 19.8918 15.9142 19.7223 16.5505 19.4754C17.2148 19.2184 17.8181 18.8255 18.3217 18.3218C18.8253 17.8182 19.2182 17.2149 19.4752 16.5506C19.7221 15.9155 19.8912 15.1875 19.9401 14.1233C19.9889 13.059 20 12.7161 20 10.0001C20 7.28418 19.9885 6.9436 19.9401 5.87699C19.8916 4.81038 19.7221 4.08594 19.4752 3.44963C19.2239 2.78248 18.8302 2.17807 18.3217 1.67843C17.8219 1.17058 17.2175 0.777745 16.5505 0.527274C15.9142 0.277989 15.1874 0.108888 14.1231 0.0604596C13.0589 0.0120315 12.7159 0.000122962 10 0.000122962L10.0016 -0.00146484Z" fill="white"/>
<path d="M10.0006 4.86475C8.9849 4.86475 7.99202 5.16594 7.1475 5.73024C6.30299 6.29454 5.64478 7.09659 5.2561 8.03498C4.86743 8.97337 4.76576 10.0059 4.96394 11.0021C5.16212 11.9983 5.65126 12.9133 6.36949 13.6315C7.08772 14.3497 8.00279 14.8387 8.99898 15.0368C9.99517 15.2349 11.0277 15.1332 11.9661 14.7444C12.9044 14.3557 13.7065 13.6974 14.2707 12.8529C14.8349 12.0083 15.136 11.0154 15.136 9.99971C15.136 9.32533 15.0032 8.65754 14.7452 8.03449C14.4871 7.41144 14.1088 6.84533 13.6319 6.36849C13.1551 5.89164 12.5889 5.51342 11.9658 5.2554C11.3428 4.99739 10.675 4.86464 10.0006 4.86475V4.86475ZM10.0006 13.3329C9.34112 13.3329 8.69645 13.1374 8.14811 12.771C7.59977 12.4046 7.17239 11.8838 6.92002 11.2745C6.66765 10.6653 6.60162 9.99482 6.73028 9.34801C6.85893 8.7012 7.1765 8.10707 7.64283 7.64075C8.10915 7.17442 8.70328 6.85685 9.35009 6.7282C9.9969 6.59954 10.6673 6.66557 11.2766 6.91794C11.8859 7.17031 12.4067 7.59769 12.773 8.14603C13.1394 8.69437 13.335 9.33904 13.335 9.99852C13.335 10.8829 12.9837 11.731 12.3584 12.3563C11.733 12.9816 10.8849 13.3329 10.0006 13.3329V13.3329Z" fill="white"/>
<path d="M15.3387 5.86187C16.0014 5.86187 16.5386 5.32463 16.5386 4.66189C16.5386 3.99916 16.0014 3.46191 15.3387 3.46191C14.6759 3.46191 14.1387 3.99916 14.1387 4.66189C14.1387 5.32463 14.6759 5.86187 15.3387 5.86187Z" fill="white"/>
</g>
<defs>
<clipPath id="clip0_2947_4131">
<rect width="20" height="20" fill="white"/>
</clipPath>
</defs>
</svg>
