<svg width="20" height="20" viewBox="0 0 20 20" fill="none" xmlns="http://www.w3.org/2000/svg">
<path fill-rule="evenodd" clip-rule="evenodd" d="M10 20C15.5228 20 20 15.5228 20 10C20 4.47715 15.5228 0 10 0C4.47715 0 0 4.47715 0 10C0 15.5228 4.47715 20 10 20ZM7.93123 13.8603L10.2504 13.9028C10.2541 13.9028 10.2615 13.9028 10.2615 13.9085C11.553 13.9327 12.8113 13.8568 14.0992 13.7626C15.1271 13.6906 15.3706 12.9444 15.4979 12.0546C15.6566 10.9799 15.6917 9.89225 15.6086 8.81018C15.6046 8.75887 15.6008 8.70711 15.5969 8.65502C15.5195 7.61968 15.4326 6.4561 14.2099 6.2416C13.9497 6.19541 13.6841 6.15483 13.4202 6.1474C10.9221 6.06641 8.40171 6.04584 5.89799 6.21944C5.15631 6.26727 4.67672 6.70686 4.55485 7.44354C4.33898 8.75645 4.29469 10.1044 4.40908 11.4284C4.41051 11.4446 4.41194 11.4608 4.41337 11.4771C4.49514 12.4085 4.59069 13.4968 5.69135 13.7218C6.28391 13.8452 6.88722 13.8501 7.49166 13.8551C7.63816 13.8563 7.78473 13.8575 7.93123 13.8603ZM10.0902 10.9581C9.69082 11.1879 9.29049 11.4181 8.88697 11.65V8.3299C9.33208 8.58543 9.77405 8.83977 10.2165 9.09439C10.7332 9.39176 11.2506 9.68951 11.7745 9.98996C11.2107 10.3136 10.6514 10.6353 10.0902 10.9581Z" fill="black"/>
</svg>
